<svg width="76" height="76" viewBox="0 0 76 76" fill="none" xmlns="http://www.w3.org/2000/svg">
    <style>
        .zero-symbol { fill: var(--text, #3C3C3C); }
        @media (prefers-color-scheme: dark) {
            .zero-symbol { fill: var(--text, #F5F5F5); }
        }
    </style>
    <!-- Background highlight (Subtle) -->
    <path d="M3 17C3 9.26801 9.26801 3 17 3H59C66.732 3 73 9.26801 73 17V59C73 66.732 66.732 73 59 73H17C9.26801 73 3 66.732 3 59V17Z" fill="var(--primary, #7C3AED)" fill-opacity="0.07"/>
    
    <!-- Dashed Modern Frame -->
    <path d="M11.543 69.126C13.1641 70.0019 15.0202 70.5 17 70.5H23.6113V75.5H17C14.1699 75.5 11.4992 74.785 9.16602 73.5244L11.543 69.126ZM44.6113 70.5V75.5H31.3887V70.5H44.6113ZM66.834 73.5244C64.5008 74.785 61.8301 75.5 59 75.5H52.3887V70.5H59C60.9798 70.5 62.8359 70.0019 64.457 69.126L66.834 73.5244ZM0.5 59V52.3887H5.5V59C5.5 60.9798 5.99813 62.8359 6.87402 64.457L2.47559 66.834C1.21496 64.5008 0.5 61.8301 0.5 59ZM70.5 59V52.3887H75.5V59C75.5 61.8301 74.785 64.5008 73.5244 66.834L69.126 64.457C70.0019 62.8359 70.5 60.9798 70.5 59ZM5.5 31.3887V44.6113H0.5V31.3887H5.5ZM75.5 31.3887V44.6113H70.5V31.3887H75.5ZM0.5 17C0.5 14.1699 1.21496 11.4992 2.47559 9.16602L6.87402 11.543C5.99813 13.1641 5.5 15.0202 5.5 17V23.6113H0.5V17ZM70.5 17C70.5 15.0202 70.0019 13.1641 69.126 11.543L73.5244 9.16602C74.785 11.4992 75.5 14.1699 75.5 17V23.6113H70.5V17ZM23.6113 0.5V5.5H17C15.0202 5.5 13.1641 5.99813 11.543 6.87402L9.16602 2.47559C11.4992 1.21496 14.1699 0.5 17 0.5H23.6113ZM59 0.5C61.8301 0.5 64.5008 1.21496 66.834 2.47559L64.457 6.87402C62.8359 5.99813 60.9798 5.5 59 5.5H52.3887V0.5H59ZM44.6113 0.5V5.5H31.3887V0.5H44.6113Z" fill="var(--primary, #7C3AED)" fill-opacity="0.9"/>
    
    <!-- Dotted Zero Symbol -->
    <path class="zero-symbol" d="M37.552 61.336C34.5867 61.336 32.1013 60.664 30.096 59.32C28.0907 57.976 26.4907 56.184 25.296 53.944C24.1227 51.6827 23.28 49.1867 22.768 46.456C22.256 43.7253 22 40.9627 22 38.168C22 36.2267 22.1387 34.1893 22.416 32.056C22.6933 29.9227 23.1733 27.8533 23.856 25.848C24.5387 23.8213 25.4667 21.9973 26.64 20.376C27.8347 18.7333 29.328 17.432 31.12 16.472C32.912 15.4907 35.056 15 37.552 15C40.5387 15 43.0347 15.6827 45.04 17.048C47.0453 18.392 48.6347 20.1947 49.808 22.456C51.0027 24.7173 51.856 27.2133 52.368 29.944C52.88 32.6747 53.136 35.416 53.136 38.168C53.136 40.1307 52.9867 42.1787 52.688 44.312C52.4107 46.424 51.9307 48.4933 51.248 50.52C50.5653 52.5253 49.6267 54.3493 48.432 55.992C47.2373 57.6347 45.744 58.936 43.952 59.896C42.1813 60.856 40.048 61.336 37.552 61.336ZM37.552 56.504C39.664 56.504 41.3707 55.9493 42.672 54.84C43.9947 53.7093 45.0187 52.2267 45.744 50.392C46.4693 48.5573 46.96 46.5733 47.216 44.44C47.4933 42.2853 47.632 40.1947 47.632 38.168C47.632 35.928 47.472 33.72 47.152 31.544C46.8533 29.368 46.3307 27.4053 45.584 25.656C44.8587 23.8853 43.8347 22.4667 42.512 21.4C41.2107 20.3333 39.5573 19.8 37.552 19.8C35.4613 19.8 33.744 20.376 32.4 21.528C31.056 22.6587 30.0213 24.1413 29.296 25.976C28.592 27.8107 28.1013 29.8053 27.824 31.96C27.5467 34.0933 27.408 36.1627 27.408 38.168C27.408 40.4293 27.5573 42.648 27.856 44.824C28.1547 47 28.6773 48.9733 29.424 50.744C30.1707 52.4933 31.2053 53.8907 32.528 54.936C33.8507 55.9813 35.5253 56.504 37.552 56.504ZM37.552 42.36C36.3787 42.36 35.3973 41.944 34.608 41.112C33.8187 40.2587 33.424 39.288 33.424 38.2C33.424 37.1333 33.8187 36.184 34.608 35.352C35.3973 34.4987 36.3787 34.072 37.552 34.072C38.7467 34.072 39.7387 34.4987 40.528 35.352C41.3173 36.184 41.712 37.1333 41.712 38.2C41.712 39.288 41.3173 40.2587 40.528 41.112C39.7387 41.944 38.7467 42.36 37.552 42.36Z"/>
</svg>
